<?xml version="1.0"?>
<svg version="1.1" viewBox="0 0 1000 600" xmlns:xlink="http://www.w3.org/1999/xlink" xmlns="http://www.w3.org/2000/svg">
<g>
<polyline fill="none" points="0.00,456.30 1.25,459.44 2.50,462.54 3.75,465.60 5.01,468.58 6.26,471.48 7.51,474.27 8.76,476.95 10.01,479.48 11.26,481.87 12.52,484.08 13.77,486.12 15.02,487.96 16.27,489.60 17.52,491.02 18.77,492.21 20.03,493.18 21.28,493.90 22.53,494.38 23.78,494.60 25.03,494.58 26.28,494.30 27.53,493.76 28.79,492.98 30.04,491.94 31.29,490.65 32.54,489.13 33.79,487.36 35.04,485.38 36.30,483.17 37.55,480.76 38.80,478.15 40.05,475.35 41.30,472.39 42.55,469.28 43.80,466.02 45.06,462.64 46.31,459.16 47.56,455.58 48.81,451.94 50.06,448.25 51.31,444.52 52.57,440.79 53.82,437.06 55.07,433.35 56.32,429.70 57.57,426.11 58.82,422.60 60.08,419.20 61.33,415.92 62.58,412.78 63.83,409.80 65.08,406.99 66.33,404.37 67.58,401.96 68.84,399.76 70.09,397.79 71.34,396.07 72.59,394.59 73.84,393.38 75.09,392.44 76.35,391.77 77.60,391.39 78.85,391.28 80.10,391.46 81.35,391.93 82.60,392.68 83.85,393.71 85.11,395.01 86.36,396.59 87.61,398.43 88.86,400.52 90.11,402.86 91.36,405.42 92.62,408.21 93.87,411.19 95.12,414.36 96.37,417.70 97.62,421.19 98.87,424.81 100.13,428.54 101.38,432.36 102.63,436.24 103.88,440.17 105.13,444.11 106.38,448.04 107.63,451.94 108.89,455.79 110.14,459.55 111.39,463.20 112.64,466.72 113.89,470.08 115.14,473.25 116.40,476.21 117.65,478.94 118.90,481.41 120.15,483.60 121.40,485.48 122.65,487.04 123.90,488.26 125.16,489.11 126.41,489.58 127.66,489.65 128.91,489.31 130.16,488.55 131.41,487.34 132.67,485.69 133.92,483.58 135.17,481.01 136.42,477.97 137.67,474.46 138.92,470.47 140.18,466.02 141.43,461.10 142.68,455.72 143.93,449.88 145.18,443.60 146.43,436.88 147.68,429.74 148.94,422.19 150.19,414.25 151.44,405.94 152.69,397.28 153.94,388.28 155.19,378.98 156.45,369.39 157.70,359.55 158.95,349.49 160.20,339.22 161.45,328.79 162.70,318.21 163.95,307.54 165.21,296.79 166.46,286.00 167.71,275.20 168.96,264.44 170.21,253.74 171.46,243.14 172.72,232.67 173.97,222.37 175.22,212.28 176.47,202.42 177.72,192.83 178.97,183.54 180.23,174.59 181.48,166.00 182.73,157.81 183.98,150.04 185.23,142.71 186.48,135.87 187.73,129.52 188.99,123.69 190.24,118.40 191.49,113.68 192.74,109.53 193.99,105.96 195.24,103.01 196.50,100.66 197.75,98.93 199.00,97.83 200.25,97.36 201.50,97.52 202.75,98.31 204.01,99.72 205.26,101.75 206.51,104.39 207.76,107.63 209.01,111.45 210.26,115.84 211.51,120.79 212.77,126.27 214.02,132.26 215.27,138.73 216.52,145.67 217.77,153.04 219.02,160.81 220.28,168.96 221.53,177.45 222.78,186.25 224.03,195.31 225.28,204.62 226.53,214.12 227.78,223.78 229.04,233.57 230.29,243.44 231.54,253.35 232.79,263.27 234.04,273.15 235.29,282.96 236.55,292.65 237.80,302.19 239.05,311.53 240.30,320.65 241.55,329.50 242.80,338.05 244.06,346.26 245.31,354.10 246.56,361.54 247.81,368.54 249.06,375.08 250.31,381.14 251.56,386.68 252.82,391.68 254.07,396.13 255.32,400.00 256.57,403.28 257.82,405.95 259.07,408.00 260.33,409.42 261.58,410.21 262.83,410.36 264.08,409.86 265.33,408.73 266.58,406.96 267.83,404.56 269.09,401.53 270.34,397.89 271.59,393.66 272.84,388.84 274.09,383.45 275.34,377.52 276.60,371.07 277.85,364.12 279.10,356.70 280.35,348.83 281.60,340.55 282.85,331.89 284.11,322.88 285.36,313.56 286.61,303.96 287.86,294.12 289.11,284.08 290.36,273.88 291.61,263.55 292.87,253.15 294.12,242.70 295.37,232.25 296.62,221.85 297.87,211.52 299.12,201.32 300.38,191.28 301.63,181.44 302.88,171.84 304.13,162.52 305.38,153.52 306.63,144.87 307.88,136.61 309.14,128.77 310.39,121.38 311.64,114.47 312.89,108.07 314.14,102.21 315.39,96.91 316.65,92.19 317.90,88.07 319.15,84.57 320.40,81.71 321.65,79.49 322.90,77.93 324.16,77.04 325.41,76.83 326.66,77.29 327.91,78.42 329.16,80.23 330.41,82.71 331.66,85.86 332.92,89.66 334.17,94.10 335.42,99.17 336.67,104.86 337.92,111.13 339.17,117.99 340.43,125.39 341.68,133.33 342.93,141.76 344.18,150.67 345.43,160.02 346.68,169.78 347.93,179.93 349.19,190.42 350.44,201.22 351.69,212.30 352.94,223.62 354.19,235.14 355.44,246.83 356.70,258.65 357.95,270.55 359.20,282.51 360.45,294.48 361.70,306.42 362.95,318.30 364.21,330.09 365.46,341.73 366.71,353.21 367.96,364.48 369.21,375.51 370.46,386.27 371.71,396.73 372.97,406.85 374.22,416.62 375.47,426.00 376.72,434.97 377.97,443.50 379.22,451.58 380.48,459.19 381.73,466.30 382.98,472.92 384.23,479.01 385.48,484.57 386.73,489.60 387.98,494.09 389.24,498.03 390.49,501.42 391.74,504.26 392.99,506.55 394.24,508.31 395.49,509.52 396.75,510.22 398.00,510.40 399.25,510.07 400.50,509.26 401.75,507.97 403.00,506.24 404.26,504.07 405.51,501.48 406.76,498.51 408.01,495.17 409.26,491.49 410.51,487.49 411.76,483.21 413.02,478.66 414.27,473.88 415.52,468.90 416.77,463.75 418.02,458.45 419.27,453.04 420.53,447.55 421.78,442.00 423.03,436.43 424.28,430.86 425.53,425.33 426.78,419.86 428.04,414.48 429.29,409.22 430.54,404.10 431.79,399.15 433.04,394.39 434.29,389.85 435.54,385.54 436.80,381.48 438.05,377.70 439.30,374.21 440.55,371.03 441.80,368.17 443.05,365.64 444.31,363.45 445.56,361.61 446.81,360.12 448.06,359.00 449.31,358.25 450.56,357.86 451.81,357.84 453.07,358.18 454.32,358.88 455.57,359.94 456.82,361.34 458.07,363.09 459.32,365.17 460.58,367.56 461.83,370.26 463.08,373.25 464.33,376.51 465.58,380.03 466.83,383.79 468.09,387.78 469.34,391.97 470.59,396.34 471.84,400.87 473.09,405.53 474.34,410.32 475.59,415.20 476.85,420.16 478.10,425.16 479.35,430.20 480.60,435.23 481.85,440.25 483.10,445.23 484.36,450.15 485.61,454.99 486.86,459.72 488.11,464.33 489.36,468.80 490.61,473.11 491.86,477.25 493.12,481.19 494.37,484.92 495.62,488.44 496.87,491.72 498.12,494.75 499.37,497.53 500.63,500.05 501.88,502.30 503.13,504.27 504.38,505.96 505.63,507.37 506.88,508.49 508.14,509.33 509.39,509.89 510.64,510.16 511.89,510.17 513.14,509.90 514.39,509.37 515.64,508.58 516.90,507.55 518.15,506.29 519.40,504.80 520.65,503.10 521.90,501.21 523.15,499.13 524.41,496.89 525.66,494.50 526.91,491.98 528.16,489.33 529.41,486.59 530.66,483.77 531.91,480.89 533.17,477.96 534.42,475.00 535.67,472.04 536.92,469.08 538.17,466.16 539.42,463.27 540.68,460.45 541.93,457.71 543.18,455.07 544.43,452.53 545.68,450.11 546.93,447.83 548.19,445.70 549.44,443.73 550.69,441.93 551.94,440.31 553.19,438.87 554.44,437.63 555.69,436.59 556.95,435.75 558.20,435.11 559.45,434.69 560.70,434.46 561.95,434.44 563.20,434.63 564.46,435.01 565.71,435.58 566.96,436.34 568.21,437.27 569.46,438.36 570.71,439.62 571.96,441.01 573.22,442.54 574.47,444.18 575.72,445.92 576.97,447.75 578.22,449.64 579.47,451.58 580.73,453.55 581.98,455.53 583.23,457.51 584.48,459.46 585.73,461.35 586.98,463.18 588.24,464.92 589.49,466.55 590.74,468.05 591.99,469.40 593.24,470.58 594.49,471.57 595.74,472.35 597.00,472.90 598.25,473.21 599.50,473.26 600.75,473.03 602.00,472.51 603.25,471.69 604.51,470.55 605.76,469.09 607.01,467.28 608.26,465.13 609.51,462.63 610.76,459.77 612.02,456.55 613.27,452.97 614.52,449.02 615.77,444.72 617.02,440.05 618.27,435.03 619.52,429.66 620.78,423.95 622.03,417.91 623.28,411.55 624.53,404.88 625.78,397.92 627.03,390.69 628.29,383.20 629.54,375.47 630.79,367.52 632.04,359.37 633.29,351.05 634.54,342.58 635.79,333.98 637.05,325.28 638.30,316.52 639.55,307.70 640.80,298.87 642.05,290.05 643.30,281.26 644.56,272.55 645.81,263.93 647.06,255.45 648.31,247.11 649.56,238.97 650.81,231.03 652.07,223.34 653.32,215.92 654.57,208.79 655.82,201.98 657.07,195.52 658.32,189.43 659.57,183.73 660.83,178.45 662.08,173.59 663.33,169.19 664.58,165.25 665.83,161.80 667.08,158.84 668.34,156.39 669.59,154.46 670.84,153.04 672.09,152.16 673.34,151.81 674.59,151.99 675.84,152.70 677.10,153.95 678.35,155.72 679.60,158.00 680.85,160.80 682.10,164.09 683.35,167.86 684.61,172.11 685.86,176.80 687.11,181.92 688.36,187.46 689.61,193.38 690.86,199.67 692.12,206.29 693.37,213.23 694.62,220.44 695.87,227.91 697.12,235.59 698.37,243.46 699.62,251.48 700.88,259.62 702.13,267.85 703.38,276.12 704.63,284.41 705.88,292.67 707.13,300.88 708.39,308.99 709.64,316.97 710.89,324.78 712.14,332.39 713.39,339.77 714.64,346.87 715.89,353.67 717.15,360.14 718.40,366.25 719.65,371.96 720.90,377.25 722.15,382.10 723.40,386.47 724.66,390.35 725.91,393.72 727.16,396.55 728.41,398.83 729.66,400.55 730.91,401.69 732.17,402.24 733.42,402.20 734.67,401.56 735.92,400.31 737.17,398.46 738.42,396.01 739.67,392.96 740.93,389.32 742.18,385.09 743.43,380.30 744.68,374.95 745.93,369.06 747.18,362.64 748.44,355.73 749.69,348.34 750.94,340.49 752.19,332.21 753.44,323.54 754.69,314.49 755.94,305.11 757.20,295.43 758.45,285.47 759.70,275.29 760.95,264.91 762.20,254.37 763.45,243.71 764.71,232.98 765.96,222.20 767.21,211.43 768.46,200.70 769.71,190.05 770.96,179.53 772.22,169.17 773.47,159.01 774.72,149.10 775.97,139.47 777.22,130.16 778.47,121.21 779.72,112.65 780.98,104.52 782.23,96.84 783.48,89.66 784.73,82.99 785.98,76.88 787.23,71.34 788.49,66.39 789.74,62.06 790.99,58.37 792.24,55.34 793.49,52.97 794.74,51.29 795.99,50.29 797.25,50.00 798.50,50.41 799.75,51.53 801.00,53.35 802.25,55.87 803.50,59.09 804.76,63.00 806.01,67.58 807.26,72.84 808.51,78.74 809.76,85.27 811.01,92.42 812.27,100.15 813.52,108.46 814.77,117.30 816.02,126.65 817.27,136.48 818.52,146.76 819.77,157.45 821.03,168.53 822.28,179.95 823.53,191.68 824.78,203.68 826.03,215.90 827.28,228.32 828.54,240.89 829.79,253.56 831.04,266.31 832.29,279.08 833.54,291.84 834.79,304.54 836.05,317.15 837.30,329.62 838.55,341.91 839.80,354.00 841.05,365.83 842.30,377.38 843.55,388.61 844.81,399.48 846.06,409.97 847.31,420.04 848.56,429.66 849.81,438.82 851.06,447.47 852.32,455.61 853.57,463.20 854.82,470.24 856.07,476.70 857.32,482.57 858.57,487.84 859.82,492.50 861.08,496.54 862.33,499.96 863.58,502.76 864.83,504.94 866.08,506.50 867.33,507.44 868.59,507.78 869.84,507.51 871.09,506.67 872.34,505.25 873.59,503.28 874.84,500.77 876.10,497.75 877.35,494.24 878.60,490.25 879.85,485.82 881.10,480.98 882.35,475.75 883.60,470.16 884.86,464.24 886.11,458.03 887.36,451.56 888.61,444.85 889.86,437.96 891.11,430.90 892.37,423.73 893.62,416.46 894.87,409.14 896.12,401.80 897.37,394.48 898.62,387.21 899.87,380.02 901.13,372.96 902.38,366.04 903.63,359.31 904.88,352.79 906.13,346.51 907.38,340.51 908.64,334.80 909.89,329.42 911.14,324.38 912.39,319.71 913.64,315.43 914.89,311.56 916.15,308.11 917.40,305.10 918.65,302.54 919.90,300.44 921.15,298.81 922.40,297.66 923.65,296.99 924.91,296.81 926.16,297.11 927.41,297.89 928.66,299.15 929.91,300.89 931.16,303.09 932.42,305.75 933.67,308.85 934.92,312.38 936.17,316.33 937.42,320.68 938.67,325.41 939.92,330.51 941.18,335.94 942.43,341.70 943.68,347.75 944.93,354.08 946.18,360.65 947.43,367.44 948.69,374.43 949.94,381.58 951.19,388.88 952.44,396.28 953.69,403.77 954.94,411.31 956.20,418.88 957.45,426.45 958.70,433.99 959.95,441.47 961.20,448.87 962.45,456.16 963.70,463.31 964.96,470.31 966.21,477.12 967.46,483.72 968.71,490.10 969.96,496.23 971.21,502.09 972.47,507.67 973.72,512.95 974.97,517.91 976.22,522.55 977.47,526.84 978.72,530.79 979.97,534.38 981.23,537.60 982.48,540.46 983.73,542.94 984.98,545.04 986.23,546.77 987.48,548.13 988.74,549.12 989.99,549.74 991.24,550.00 992.49,549.91 993.74,549.48 994.99,548.72 996.25,547.63 997.50,546.25 998.75,544.56 1000.00,542.60" stroke-dasharray="3.6 3.6" stroke-width="3.6" stroke="#aaa" />
</g>
</svg>