<?xml version="1.0"?>
<svg version="1.1" viewBox="0 0 1000 600" xmlns:xlink="http://www.w3.org/1999/xlink" xmlns="http://www.w3.org/2000/svg">
<g>
<polyline fill="none" points="0.00,298.53 1.25,310.30 2.50,320.10 3.75,327.16 5.01,331.04 6.26,331.59 7.51,329.03 8.76,323.83 10.01,316.74 11.26,308.60 12.52,300.33 13.77,292.80 15.02,286.70 16.27,282.54 17.52,280.57 18.77,280.73 20.03,282.75 21.28,286.11 22.53,290.19 23.78,294.28 25.03,297.71 26.28,299.95 27.53,300.64 28.79,299.66 30.04,297.12 31.29,293.40 32.54,289.04 33.79,284.73 35.04,281.18 36.30,279.07 37.55,278.94 38.80,281.09 40.05,285.59 41.30,292.19 42.55,300.39 43.80,309.44 45.06,318.41 46.31,326.32 47.56,332.22 48.81,335.30 50.06,334.97 51.31,330.96 52.57,323.37 53.82,312.65 55.07,299.58 56.32,285.25 57.57,270.89 58.82,257.84 60.08,247.35 61.33,240.51 62.58,238.12 63.83,240.58 65.08,247.88 66.33,259.59 67.58,274.85 68.84,292.47 70.09,311.00 71.34,328.91 72.59,344.66 73.84,356.88 75.09,364.49 76.35,366.77 77.60,363.44 78.85,354.69 80.10,341.18 81.35,323.93 82.60,304.31 83.85,283.86 85.11,264.18 86.36,246.83 87.61,233.15 88.86,224.21 90.11,220.66 91.36,222.78 92.62,230.36 93.87,242.81 95.12,259.17 96.37,278.21 97.62,298.52 98.87,318.64 100.13,337.11 101.38,352.66 102.63,364.22 103.88,371.04 105.13,372.69 106.38,369.10 107.63,360.56 108.89,347.67 110.14,331.30 111.39,312.53 112.64,292.60 113.89,272.77 115.14,254.33 116.40,238.46 117.65,226.18 118.90,218.33 120.15,215.47 121.40,217.86 122.65,225.47 123.90,237.93 125.16,254.58 126.41,274.46 127.66,296.39 128.91,319.00 130.16,340.81 131.41,360.34 132.67,376.16 133.92,387.04 135.17,392.01 136.42,390.45 137.67,382.18 138.92,367.46 140.18,347.04 141.43,322.13 142.68,294.33 143.93,265.56 145.18,237.88 146.43,213.43 147.68,194.17 148.94,181.81 150.19,177.58 151.44,182.15 152.69,195.56 153.94,217.12 155.19,245.50 156.45,278.76 157.70,314.49 158.95,349.98 160.20,382.43 161.45,409.18 162.70,427.94 163.95,436.97 165.21,435.25 166.46,422.62 167.71,399.76 168.96,368.23 170.21,330.32 171.46,288.91 172.72,247.22 173.97,208.58 175.22,176.14 176.47,152.60 177.72,140.02 178.97,139.57 180.23,151.46 181.48,174.92 182.73,208.21 183.98,248.78 185.23,293.47 186.48,338.75 187.73,381.02 188.99,416.89 190.24,443.48 191.49,458.65 192.74,461.18 193.99,450.85 195.24,428.47 196.50,395.82 197.75,355.49 199.00,310.69 200.25,264.92 201.50,221.78 202.75,184.59 204.01,156.20 205.26,138.72 206.51,133.38 207.76,140.46 209.01,159.26 210.26,188.19 211.51,224.91 212.77,266.53 214.02,309.83 215.27,351.54 216.52,388.59 217.77,418.32 219.02,438.66 220.28,448.33 221.53,446.83 222.78,434.50 224.03,412.45 225.28,382.47 226.53,346.85 227.78,308.23 229.04,269.36 230.29,232.96 231.54,201.48 232.79,176.99 234.04,161.02 235.29,154.50 236.55,157.71 237.80,170.27 239.05,191.23 240.30,219.11 241.55,251.99 242.80,287.69 244.06,323.87 245.31,358.17 246.56,388.36 247.81,412.49 249.06,428.96 250.31,436.67 251.56,435.03 252.82,424.05 254.07,404.34 255.32,377.04 256.57,343.86 257.82,306.88 259.07,268.51 260.33,231.34 261.58,197.92 262.83,170.66 264.08,151.63 265.33,142.39 266.58,143.89 267.83,156.33 269.09,179.15 270.34,211.03 271.59,249.91 272.84,293.17 274.09,337.73 275.34,380.33 276.60,417.71 277.85,446.91 279.10,465.47 280.35,471.69 281.60,464.74 282.85,444.79 284.11,413.06 285.36,371.70 286.61,323.70 287.86,272.64 289.11,222.48 290.36,177.16 291.61,140.37 292.87,115.18 294.12,103.80 295.37,107.37 296.62,125.83 297.87,157.95 299.12,201.33 300.38,252.64 301.63,307.86 302.88,362.58 304.13,412.41 305.38,453.29 306.63,481.88 307.88,495.81 309.14,493.90 310.39,476.27 311.64,444.32 312.89,400.62 314.14,348.73 315.39,292.86 316.65,237.54 317.90,187.22 319.15,145.94 320.40,116.96 321.65,102.49 322.90,103.54 324.16,119.85 325.41,149.90 326.66,191.07 327.91,239.89 329.16,292.29 330.41,344.04 331.66,391.01 332.92,429.57 334.17,456.85 335.42,470.98 336.67,471.18 337.92,457.83 339.17,432.39 340.43,397.22 341.68,355.39 342.93,310.38 344.18,265.80 345.43,225.05 346.68,191.12 347.93,166.31 349.19,152.11 350.44,149.12 351.69,157.06 352.94,174.81 354.19,200.57 355.44,232.07 356.70,266.73 357.95,301.90 359.20,335.05 360.45,363.99 361.70,386.97 362.95,402.76 364.21,410.73 365.46,410.82 366.71,403.48 367.96,389.62 369.21,370.46 370.46,347.48 371.71,322.24 372.97,296.34 374.22,271.28 375.47,248.43 376.72,228.97 377.97,213.83 379.22,203.73 380.48,199.10 381.73,200.14 382.98,206.77 384.23,218.67 385.48,235.27 386.73,255.74 387.98,279.03 389.24,303.89 390.49,328.91 391.74,352.58 392.99,373.35 394.24,389.77 395.49,400.54 396.75,404.65 398.00,401.46 399.25,390.82 400.50,373.08 401.75,349.17 403.00,320.51 404.26,289.01 405.51,256.89 406.76,226.58 408.01,200.48 409.26,180.82 410.51,169.40 411.76,167.45 413.02,175.51 414.27,193.27 415.52,219.65 416.77,252.78 418.02,290.18 419.27,328.89 420.53,365.77 421.78,397.72 423.03,421.98 424.28,436.36 425.53,439.49 426.78,430.88 428.04,411.10 429.29,381.65 430.54,344.92 431.79,303.93 433.04,262.14 434.29,223.10 435.54,190.16 436.80,166.15 438.05,153.14 439.30,152.23 440.55,163.48 441.80,185.87 443.05,217.39 444.31,255.23 445.56,296.07 446.81,336.31 448.06,372.46 449.31,401.42 450.56,420.79 451.81,429.05 453.07,425.69 454.32,411.29 455.57,387.37 456.82,356.31 458.07,321.06 459.32,284.88 460.58,251.03 461.83,222.46 463.08,201.53 464.33,189.83 465.58,188.05 466.83,195.92 468.09,212.27 469.34,235.21 470.59,262.29 471.84,290.80 473.09,318.00 474.34,341.41 475.59,359.07 476.85,369.66 478.10,372.62 479.35,368.19 480.60,357.34 481.85,341.61 483.10,322.96 484.36,303.51 485.61,285.34 486.86,270.25 488.11,259.58 489.36,254.10 490.61,253.96 491.86,258.68 493.12,267.26 494.37,278.31 495.62,290.23 496.87,301.41 498.12,310.42 499.37,316.17 500.63,318.04 501.88,315.95 503.13,310.33 504.38,302.10 505.63,292.49 506.88,282.95 508.14,274.90 509.39,269.61 510.64,267.98 511.89,270.49 513.14,277.07 514.39,287.13 515.64,299.62 516.90,313.13 518.15,326.06 519.40,336.80 520.65,343.93 521.90,346.36 523.15,343.51 524.41,335.38 525.66,322.55 526.91,306.13 528.16,287.70 529.41,269.10 530.66,252.26 531.91,238.98 533.17,230.77 534.42,228.61 535.67,232.93 536.92,243.46 538.17,259.31 539.42,279.02 540.68,300.73 541.93,322.34 543.18,341.74 544.43,357.04 545.68,366.72 546.93,369.86 548.19,366.14 549.44,355.97 550.69,340.37 551.94,320.92 553.19,299.52 554.44,278.29 555.69,259.27 556.95,244.24 558.20,234.55 559.45,230.97 560.70,233.63 561.95,242.04 563.20,255.12 564.46,271.36 565.71,288.96 566.96,306.08 568.21,320.99 569.46,332.29 570.71,339.03 571.96,340.81 573.22,337.81 574.47,330.73 575.72,320.73 576.97,309.22 578.22,297.74 579.47,287.73 580.73,280.38 581.98,276.48 583.23,276.33 584.48,279.71 585.73,285.91 586.98,293.82 588.24,302.10 589.49,309.34 590.74,314.23 591.99,315.77 593.24,313.42 594.49,307.13 595.74,297.45 597.00,285.42 598.25,272.52 599.50,260.46 600.75,250.99 602.00,245.70 603.25,245.80 604.51,251.95 605.76,264.11 607.01,281.55 608.26,302.86 609.51,326.03 610.76,348.70 612.02,368.37 613.27,382.66 614.52,389.58 615.77,387.80 617.02,376.79 618.27,356.98 619.52,329.72 620.78,297.19 622.03,262.29 623.28,228.29 624.53,198.56 625.78,176.23 627.03,163.87 628.29,163.17 629.54,174.80 630.79,198.21 632.04,231.74 633.29,272.66 634.54,317.44 635.79,362.04 637.05,402.31 638.30,434.39 639.55,455.06 640.80,462.07 642.05,454.42 643.30,432.43 644.56,397.77 645.81,353.31 647.06,302.89 648.31,250.95 649.56,202.16 650.81,160.95 652.07,131.10 653.32,115.40 654.57,115.37 655.82,131.12 657.07,161.33 658.32,203.37 659.57,253.52 660.83,307.37 662.08,360.17 663.33,407.28 664.58,444.62 665.83,469.00 667.08,478.43 668.34,472.26 669.59,451.25 670.84,417.46 672.09,374.03 673.34,324.89 674.59,274.38 675.84,226.87 677.10,186.32 678.35,155.98 679.60,138.10 680.85,133.77 682.10,142.85 683.35,164.07 684.61,195.14 685.86,233.05 687.11,274.33 688.36,315.42 689.61,352.96 690.86,384.13 692.12,406.78 693.37,419.66 694.62,422.42 695.87,415.58 697.12,400.42 698.37,378.78 699.62,352.88 700.88,325.03 702.13,297.46 703.38,272.11 704.63,250.51 705.88,233.67 707.13,222.09 708.39,215.81 709.64,214.46 710.89,217.43 712.14,223.95 713.39,233.21 714.64,244.50 715.89,257.24 717.15,270.98 718.40,285.43 719.65,300.37 720.90,315.60 722.15,330.85 723.40,345.68 724.66,359.50 725.91,371.49 727.16,380.69 728.41,386.03 729.66,386.50 730.91,381.22 732.17,369.66 733.42,351.74 734.67,327.94 735.92,299.35 737.17,267.68 738.42,235.15 739.67,204.37 740.93,178.11 742.18,159.04 743.43,149.46 744.68,151.05 745.93,164.62 747.18,189.99 748.44,225.85 749.69,269.88 750.94,318.81 752.19,368.71 753.44,415.31 754.69,454.36 755.94,482.03 757.20,495.31 758.45,492.32 759.70,472.57 760.95,437.02 762.20,388.13 763.45,329.63 764.71,266.27 765.96,203.43 767.21,146.62 768.46,100.97 769.71,70.81 770.96,59.17 772.22,67.53 773.47,95.63 774.72,141.41 775.97,201.23 777.22,270.12 778.47,342.20 779.72,411.25 780.98,471.21 782.23,516.78 783.48,543.87 784.73,550.00 785.98,534.53 787.23,498.72 788.49,445.65 789.74,379.91 790.99,307.22 792.24,233.89 793.49,166.27 794.74,110.16 795.99,70.31 797.25,50.00 798.50,50.74 799.75,72.20 801.00,112.20 802.25,167.00 803.50,231.62 804.76,300.31 806.01,367.11 807.26,426.35 808.51,473.17 809.76,503.94 811.01,516.53 812.27,510.46 813.52,486.89 814.77,448.48 816.02,399.04 817.27,343.21 818.52,285.96 819.77,232.16 821.03,186.14 822.28,151.33 823.53,130.01 824.78,123.15 826.03,130.42 827.28,150.30 828.54,180.31 829.79,217.26 831.04,257.63 832.29,297.90 833.54,334.87 834.79,365.91 836.05,389.17 837.30,403.65 838.55,409.19 839.80,406.41 841.05,396.55 842.30,381.25 843.55,362.35 844.81,341.67 846.06,320.84 847.31,301.15 848.56,283.51 849.81,268.41 851.06,256.00 852.32,246.15 853.57,238.62 854.82,233.12 856.07,229.46 857.32,227.62 858.57,227.78 859.82,230.29 861.08,235.61 862.33,244.23 863.58,256.50 864.83,272.50 866.08,291.97 867.33,314.18 868.59,337.94 869.84,361.64 871.09,383.33 872.34,400.91 873.59,412.35 874.84,415.89 876.10,410.31 877.35,395.07 878.60,370.52 879.85,337.90 881.10,299.36 882.35,257.78 883.60,216.58 884.86,179.45 886.11,149.93 887.36,131.15 888.61,125.43 889.86,134.02 891.11,156.94 892.37,192.88 893.62,239.24 894.87,292.37 896.12,347.82 897.37,400.72 898.62,446.26 899.87,480.14 901.13,498.96 902.38,500.61 903.63,484.49 904.88,451.60 906.13,404.51 907.38,347.16 908.64,284.48 909.89,222.00 911.14,165.32 912.39,119.59 913.64,89.01 914.89,76.46 916.15,83.17 917.40,108.63 918.65,150.61 919.90,205.37 921.15,267.96 922.40,332.74 923.65,393.88 924.91,445.89 926.16,484.15 927.41,505.34 928.66,507.75 929.91,491.38 931.16,458.00 932.42,410.91 933.67,354.63 934.92,294.44 936.17,235.90 937.42,184.30 938.67,144.18 939.92,118.87 941.18,110.27 942.43,118.64 943.68,142.67 944.93,179.59 946.18,225.51 947.43,275.84 948.69,325.72 949.94,370.51 951.19,406.27 952.44,430.05 953.69,440.21 954.94,436.50 956.20,420.03 957.45,393.09 958.70,358.91 959.95,321.26 961.20,284.04 962.45,250.91 963.70,224.87 964.96,208.04 966.21,201.44 967.46,204.97 968.71,217.44 969.96,236.79 971.21,260.35 972.47,285.16 973.72,308.31 974.97,327.29 976.22,340.22 977.47,346.09 978.72,344.76 979.97,337.02 981.23,324.41 982.48,308.99 983.73,293.12 984.98,279.11 986.23,268.95 987.48,264.06 988.74,265.14 989.99,272.05 991.24,283.86 992.49,298.96 993.74,315.26 994.99,330.44 996.25,342.26 997.50,348.85 998.75,348.92 1000.00,341.97" stroke-dasharray="3.6 3.6" stroke-width="3.6" stroke="#aaa" />
<polyline fill="none" points="0.00,227.63 1.25,228.12 2.50,228.61 3.75,229.10 5.01,229.58 6.26,230.06 7.51,230.52 8.76,230.98 10.01,231.41 11.26,231.83 12.52,232.23 13.77,232.61 15.02,232.96 16.27,233.28 17.52,233.58 18.77,233.84 20.03,234.06 21.28,234.26 22.53,234.41 23.78,234.53 25.03,234.60 26.28,234.64 27.53,234.63 28.79,234.59 30.04,234.50 31.29,234.37 32.54,234.19 33.79,233.98 35.04,233.72 36.30,233.42 37.55,233.09 38.80,232.71 40.05,232.30 41.30,231.85 42.55,231.37 43.80,230.86 45.06,230.32 46.31,229.74 47.56,229.15 48.81,228.53 50.06,227.89 51.31,227.23 52.57,226.55 53.82,225.86 55.07,225.16 56.32,224.46 57.57,223.74 58.82,223.03 60.08,222.32 61.33,221.61 62.58,220.90 63.83,220.21 65.08,219.52 66.33,218.85 67.58,218.19 68.84,217.55 70.09,216.93 71.34,216.33 72.59,215.75 73.84,215.20 75.09,214.67 76.35,214.16 77.60,213.69 78.85,213.24 80.10,212.82 81.35,212.42 82.60,212.06 83.85,211.72 85.11,211.40 86.36,211.12 87.61,210.85 88.86,210.62 90.11,210.40 91.36,210.20 92.62,210.02 93.87,209.86 95.12,209.71 96.37,209.58 97.62,209.45 98.87,209.33 100.13,209.21 101.38,209.09 102.63,208.97 103.88,208.85 105.13,208.71 106.38,208.56 107.63,208.40 108.89,208.21 110.14,208.00 111.39,207.77 112.64,207.51 113.89,207.21 115.14,206.88 116.40,206.51 117.65,206.09 118.90,205.63 120.15,205.13 121.40,204.57 122.65,203.96 123.90,203.30 125.16,202.58 126.41,201.80 127.66,200.96 128.91,200.07 130.16,199.11 131.41,198.08 132.67,197.00 133.92,195.85 135.17,194.64 136.42,193.37 137.67,192.04 138.92,190.65 140.18,189.20 141.43,187.70 142.68,186.14 143.93,184.53 145.18,182.87 146.43,181.17 147.68,179.42 148.94,177.63 150.19,175.81 151.44,173.96 152.69,172.08 153.94,170.18 155.19,168.26 156.45,166.32 157.70,164.38 158.95,162.44 160.20,160.50 161.45,158.56 162.70,156.64 163.95,154.74 165.21,152.86 166.46,151.01 167.71,149.20 168.96,147.42 170.21,145.70 171.46,144.02 172.72,142.39 173.97,140.83 175.22,139.33 176.47,137.90 177.72,136.54 178.97,135.27 180.23,134.07 181.48,132.96 182.73,131.93 183.98,131.00 185.23,130.15 186.48,129.41 187.73,128.76 188.99,128.21 190.24,127.75 191.49,127.40 192.74,127.15 193.99,126.99 195.24,126.94 196.50,126.98 197.75,127.12 199.00,127.36 200.25,127.68 201.50,128.10 202.75,128.60 204.01,129.18 205.26,129.85 206.51,130.59 207.76,131.39 209.01,132.27 210.26,133.20 211.51,134.19 212.77,135.22 214.02,136.30 215.27,137.41 216.52,138.56 217.77,139.73 219.02,140.91 220.28,142.10 221.53,143.30 222.78,144.49 224.03,145.67 225.28,146.84 226.53,147.97 227.78,149.08 229.04,150.14 230.29,151.16 231.54,152.13 232.79,153.04 234.04,153.89 235.29,154.66 236.55,155.36 237.80,155.97 239.05,156.50 240.30,156.94 241.55,157.29 242.80,157.53 244.06,157.67 245.31,157.71 246.56,157.64 247.81,157.46 249.06,157.17 250.31,156.76 251.56,156.25 252.82,155.62 254.07,154.87 255.32,154.02 256.57,153.05 257.82,151.98 259.07,150.80 260.33,149.52 261.58,148.14 262.83,146.66 264.08,145.10 265.33,143.45 266.58,141.72 267.83,139.91 269.09,138.04 270.34,136.10 271.59,134.11 272.84,132.08 274.09,130.00 275.34,127.89 276.60,125.76 277.85,123.62 279.10,121.46 280.35,119.31 281.60,117.17 282.85,115.05 284.11,112.96 285.36,110.90 286.61,108.89 287.86,106.93 289.11,105.04 290.36,103.22 291.61,101.48 292.87,99.83 294.12,98.27 295.37,96.82 296.62,95.48 297.87,94.25 299.12,93.15 300.38,92.18 301.63,91.35 302.88,90.65 304.13,90.11 305.38,89.71 306.63,89.46 307.88,89.38 309.14,89.45 310.39,89.68 311.64,90.08 312.89,90.64 314.14,91.36 315.39,92.25 316.65,93.30 317.90,94.50 319.15,95.87 320.40,97.40 321.65,99.07 322.90,100.90 324.16,102.87 325.41,104.98 326.66,107.22 327.91,109.59 329.16,112.07 330.41,114.68 331.66,117.39 332.92,120.19 334.17,123.09 335.42,126.07 336.67,129.12 337.92,132.24 339.17,135.41 340.43,138.63 341.68,141.88 342.93,145.15 344.18,148.44 345.43,151.74 346.68,155.03 347.93,158.30 349.19,161.55 350.44,164.77 351.69,167.94 352.94,171.06 354.19,174.11 355.44,177.10 356.70,180.00 357.95,182.81 359.20,185.53 360.45,188.14 361.70,190.64 362.95,193.03 364.21,195.28 365.46,197.41 366.71,199.41 367.96,201.26 369.21,202.97 370.46,204.53 371.71,205.94 372.97,207.20 374.22,208.31 375.47,209.26 376.72,210.06 377.97,210.70 379.22,211.18 380.48,211.51 381.73,211.70 382.98,211.73 384.23,211.62 385.48,211.36 386.73,210.98 387.98,210.45 389.24,209.81 390.49,209.04 391.74,208.16 392.99,207.17 394.24,206.08 395.49,204.89 396.75,203.63 398.00,202.28 399.25,200.87 400.50,199.40 401.75,197.87 403.00,196.31 404.26,194.71 405.51,193.09 406.76,191.45 408.01,189.81 409.26,188.18 410.51,186.56 411.76,184.95 413.02,183.39 414.27,181.86 415.52,180.37 416.77,178.95 418.02,177.59 419.27,176.30 420.53,175.09 421.78,173.96 423.03,172.93 424.28,171.99 425.53,171.16 426.78,170.43 428.04,169.81 429.29,169.32 430.54,168.94 431.79,168.68 433.04,168.54 434.29,168.53 435.54,168.65 436.80,168.90 438.05,169.27 439.30,169.77 440.55,170.39 441.80,171.13 443.05,172.00 444.31,172.98 445.56,174.08 446.81,175.28 448.06,176.60 449.31,178.01 450.56,179.52 451.81,181.11 453.07,182.80 454.32,184.55 455.57,186.38 456.82,188.27 458.07,190.22 459.32,192.21 460.58,194.25 461.83,196.32 463.08,198.41 464.33,200.52 465.58,202.63 466.83,204.75 468.09,206.86 469.34,208.95 470.59,211.02 471.84,213.06 473.09,215.06 474.34,217.01 475.59,218.91 476.85,220.75 478.10,222.52 479.35,224.21 480.60,225.83 481.85,227.37 483.10,228.82 484.36,230.17 485.61,231.42 486.86,232.58 488.11,233.63 489.36,234.57 490.61,235.41 491.86,236.13 493.12,236.74 494.37,237.24 495.62,237.63 496.87,237.91 498.12,238.08 499.37,238.14 500.63,238.09 501.88,237.94 503.13,237.68 504.38,237.33 505.63,236.89 506.88,236.36 508.14,235.74 509.39,235.04 510.64,234.27 511.89,233.43 513.14,232.52 514.39,231.57 515.64,230.56 516.90,229.50 518.15,228.42 519.40,227.30 520.65,226.16 521.90,225.00 523.15,223.83 524.41,222.67 525.66,221.50 526.91,220.35 528.16,219.22 529.41,218.11 530.66,217.03 531.91,215.98 533.17,214.98 534.42,214.02 535.67,213.12 536.92,212.27 538.17,211.49 539.42,210.76 540.68,210.11 541.93,209.52 543.18,209.01 544.43,208.57 545.68,208.20 546.93,207.91 548.19,207.70 549.44,207.56 550.69,207.50 551.94,207.51 553.19,207.59 554.44,207.74 555.69,207.96 556.95,208.24 558.20,208.58 559.45,208.97 560.70,209.41 561.95,209.89 563.20,210.42 564.46,210.97 565.71,211.55 566.96,212.15 568.21,212.76 569.46,213.38 570.71,213.99 571.96,214.59 573.22,215.17 574.47,215.73 575.72,216.25 576.97,216.73 578.22,217.16 579.47,217.53 580.73,217.83 581.98,218.06 583.23,218.20 584.48,218.26 585.73,218.22 586.98,218.08 588.24,217.84 589.49,217.47 590.74,216.99 591.99,216.38 593.24,215.64 594.49,214.77 595.74,213.76 597.00,212.61 598.25,211.32 599.50,209.89 600.75,208.31 602.00,206.59 603.25,204.72 604.51,202.70 605.76,200.55 607.01,198.25 608.26,195.82 609.51,193.26 610.76,190.57 612.02,187.75 613.27,184.82 614.52,181.78 615.77,178.63 617.02,175.38 618.27,172.05 619.52,168.64 620.78,165.16 622.03,161.62 623.28,158.03 624.53,154.40 625.78,150.74 627.03,147.07 628.29,143.39 629.54,139.72 630.79,136.07 632.04,132.45 633.29,128.87 634.54,125.34 635.79,121.89 637.05,118.52 638.30,115.24 639.55,112.06 640.80,109.00 642.05,106.07 643.30,103.27 644.56,100.63 645.81,98.14 647.06,95.83 648.31,93.69 649.56,91.74 650.81,89.98 652.07,88.43 653.32,87.09 654.57,85.96 655.82,85.06 657.07,84.37 658.32,83.92 659.57,83.69 660.83,83.70 662.08,83.94 663.33,84.42 664.58,85.12 665.83,86.06 667.08,87.22 668.34,88.61 669.59,90.21 670.84,92.03 672.09,94.05 673.34,96.27 674.59,98.68 675.84,101.27 677.10,104.03 678.35,106.95 679.60,110.02 680.85,113.23 682.10,116.56 683.35,119.99 684.61,123.52 685.86,127.14 687.11,130.81 688.36,134.54 689.61,138.30 690.86,142.08 692.12,145.86 693.37,149.62 694.62,153.35 695.87,157.03 697.12,160.64 698.37,164.17 699.62,167.60 700.88,170.91 702.13,174.10 703.38,177.13 704.63,180.00 705.88,182.70 707.13,185.20 708.39,187.50 709.64,189.58 710.89,191.43 712.14,193.04 713.39,194.40 714.64,195.50 715.89,196.32 717.15,196.87 718.40,197.14 719.65,197.12 720.90,196.80 722.15,196.18 723.40,195.27 724.66,194.05 725.91,192.53 727.16,190.72 728.41,188.60 729.66,186.20 730.91,183.50 732.17,180.52 733.42,177.27 734.67,173.75 735.92,169.97 737.17,165.94 738.42,161.68 739.67,157.19 740.93,152.49 742.18,147.60 743.43,142.53 744.68,137.29 745.93,131.91 747.18,126.39 748.44,120.77 749.69,115.05 750.94,109.25 752.19,103.41 753.44,97.53 754.69,91.63 755.94,85.75 757.20,79.89 758.45,74.08 759.70,68.35 760.95,62.70 762.20,57.16 763.45,51.76 764.71,46.50 765.96,41.42 767.21,36.53 768.46,31.85 769.71,27.39 770.96,23.18 772.22,19.23 773.47,15.56 774.72,12.17 775.97,9.09 777.22,6.33 778.47,3.90 779.72,1.80 780.98,0.06 792.24,0.98 793.49,2.97 794.74,5.32 795.99,8.03 797.25,11.09 798.50,14.50 799.75,18.25 801.00,22.32 802.25,26.70 803.50,31.38 804.76,36.34 806.01,41.57 807.26,47.05 808.51,52.76 809.76,58.69 811.01,64.81 812.27,71.11 813.52,77.57 814.77,84.16 816.02,90.86 817.27,97.65 818.52,104.52 819.77,111.42 821.03,118.36 822.28,125.29 823.53,132.20 824.78,139.07 826.03,145.87 827.28,152.58 828.54,159.18 829.79,165.65 831.04,171.97 832.29,178.12 833.54,184.07 834.79,189.82 836.05,195.33 837.30,200.60 838.55,205.61 839.80,210.34 841.05,214.78 842.30,218.91 843.55,222.73 844.81,226.23 846.06,229.38 847.31,232.20 848.56,234.66 849.81,236.77 851.06,238.52 852.32,239.90 853.57,240.92 854.82,241.57 856.07,241.87 857.32,241.80 858.57,241.37 859.82,240.60 861.08,239.47 862.33,238.02 863.58,236.23 864.83,234.13 866.08,231.72 867.33,229.01 868.59,226.03 869.84,222.78 871.09,219.28 872.34,215.54 873.59,211.59 874.84,207.44 876.10,203.11 877.35,198.62 878.60,193.99 879.85,189.24 881.10,184.38 882.35,179.45 883.60,174.45 884.86,169.42 886.11,164.37 887.36,159.32 888.61,154.30 889.86,149.32 891.11,144.41 892.37,139.58 893.62,134.86 894.87,130.26 896.12,125.81 897.37,121.51 898.62,117.39 899.87,113.46 901.13,109.74 902.38,106.25 903.63,102.99 904.88,99.97 906.13,97.22 907.38,94.74 908.64,92.54 909.89,90.62 911.14,89.00 912.39,87.68 913.64,86.66 914.89,85.95 916.15,85.55 917.40,85.45 918.65,85.67 919.90,86.20 921.15,87.03 922.40,88.16 923.65,89.58 924.91,91.29 926.16,93.29 927.41,95.56 928.66,98.09 929.91,100.87 931.16,103.89 932.42,107.14 933.67,110.61 934.92,114.28 936.17,118.13 937.42,122.16 938.67,126.34 939.92,130.66 941.18,135.11 942.43,139.66 943.68,144.29 944.93,149.00 946.18,153.76 947.43,158.56 948.69,163.38 949.94,168.19 951.19,172.99 952.44,177.75 953.69,182.47 954.94,187.11 956.20,191.67 957.45,196.13 958.70,200.48 959.95,204.70 961.20,208.77 962.45,212.70 963.70,216.45 964.96,220.02 966.21,223.41 967.46,226.60 968.71,229.57 969.96,232.34 971.21,234.88 972.47,237.19 973.72,239.28 974.97,241.12 976.22,242.73 977.47,244.10 978.72,245.23 979.97,246.11 981.23,246.76 982.48,247.18 983.73,247.36 984.98,247.31 986.23,247.04 987.48,246.55 988.74,245.85 989.99,244.95 991.24,243.86 992.49,242.58 993.74,241.13 994.99,239.52 996.25,237.75 997.50,235.85 998.75,233.81 1000.00,231.66" stroke-dasharray="3.6 3.6" stroke-width="3.6" stroke="red" />
</g>
</svg>