<?xml version="1.0"?>
<svg version="1.1" viewBox="0 0 1000 600" xmlns:xlink="http://www.w3.org/1999/xlink" xmlns="http://www.w3.org/2000/svg">
<g>
<polyline fill="none" points="0.00,349.92 1.25,370.65 2.50,383.85 3.75,388.43 5.01,384.23 6.26,372.01 7.51,353.34 8.76,330.47 10.01,306.02 11.26,282.71 12.52,263.07 13.77,249.18 15.02,242.42 16.27,243.33 17.52,251.61 18.77,266.09 20.03,284.93 21.28,305.81 22.53,326.19 23.78,343.61 25.03,355.97 26.28,361.75 27.53,360.21 28.79,351.45 30.04,336.44 31.29,316.87 32.54,295.00 33.79,273.40 35.04,254.66 36.30,241.10 37.55,234.51 38.80,235.91 40.05,245.48 41.30,262.45 42.55,285.23 43.80,311.53 45.06,338.59 46.31,363.49 47.56,383.47 48.81,396.18 50.06,399.99 51.31,394.17 52.57,378.96 53.82,355.60 55.07,326.19 56.32,293.51 57.57,260.75 58.82,231.17 60.08,207.78 61.33,193.03 62.58,188.58 63.83,195.06 65.08,212.08 66.33,238.17 67.58,270.98 68.84,307.51 70.09,344.32 71.34,377.98 72.59,405.31 73.84,423.73 75.09,431.51 76.35,427.93 77.60,413.34 78.85,389.11 80.10,357.50 81.35,321.46 82.60,284.30 83.85,249.36 85.11,219.76 86.36,198.05 87.61,185.99 88.86,184.42 90.11,193.21 91.36,211.29 92.62,236.76 93.87,267.13 95.12,299.59 96.37,331.22 97.62,359.34 98.87,381.70 100.13,396.70 101.38,403.49 102.63,402.00 103.88,392.90 105.13,377.51 106.38,357.57 107.63,335.12 108.89,312.19 110.14,290.69 111.39,272.19 112.64,257.80 113.89,248.13 115.14,243.30 116.40,242.96 117.65,246.42 118.90,252.78 120.15,261.07 121.40,270.35 122.65,279.88 123.90,289.13 125.16,297.84 126.41,305.99 127.66,313.72 128.91,321.28 130.16,328.89 131.41,336.65 132.67,344.46 133.92,351.99 135.17,358.63 136.42,363.60 137.67,365.96 138.92,364.79 140.18,359.32 141.43,349.07 142.68,333.98 143.93,314.50 145.18,291.62 146.43,266.87 147.68,242.20 148.94,219.84 150.19,202.10 151.44,191.11 152.69,188.60 153.94,195.68 155.19,212.63 156.45,238.85 157.70,272.77 158.95,312.00 160.20,353.43 161.45,393.52 162.70,428.61 163.95,455.24 165.21,470.52 166.46,472.42 167.71,460.03 168.96,433.70 170.21,395.06 171.46,346.96 172.72,293.22 173.97,238.34 175.22,187.12 176.47,144.18 177.72,113.60 178.97,98.46 180.23,100.57 181.48,120.22 182.73,156.17 183.98,205.67 185.23,264.73 186.48,328.40 187.73,391.24 188.99,447.77 190.24,493.01 191.49,522.90 192.74,534.66 193.99,527.11 195.24,500.74 196.50,457.69 197.75,401.58 199.00,337.18 200.25,269.99 201.50,205.73 202.75,149.88 204.01,107.16 205.26,81.12 206.51,73.85 207.76,85.79 209.01,115.75 210.26,160.97 211.51,217.46 212.77,280.31 214.02,344.15 215.27,403.67 216.52,454.01 217.77,491.22 219.02,512.57 220.28,516.71 221.53,503.81 222.78,475.44 224.03,434.40 225.28,384.44 226.53,329.91 227.78,275.33 229.04,225.05 230.29,182.86 231.54,151.69 232.79,133.44 234.04,128.88 235.29,137.65 236.55,158.35 237.80,188.76 239.05,226.03 240.30,267.02 241.55,308.53 242.80,347.58 244.06,381.60 245.31,408.62 246.56,427.33 247.81,437.10 249.06,437.99 250.31,430.59 251.56,415.96 252.82,395.49 254.07,370.72 255.32,343.28 256.57,314.73 257.82,286.54 259.07,260.05 260.33,236.41 261.58,216.61 262.83,201.49 264.08,191.74 265.33,187.89 266.58,190.31 267.83,199.15 269.09,214.29 270.34,235.34 271.59,261.53 272.84,291.73 274.09,324.42 275.34,357.72 276.60,389.51 277.85,417.51 279.10,439.47 280.35,453.33 281.60,457.44 282.85,450.75 284.11,432.95 285.36,404.60 286.61,367.17 287.86,322.97 289.11,275.07 290.36,227.04 291.61,182.75 292.87,145.99 294.12,120.15 295.37,107.91 296.62,110.93 297.87,129.69 299.12,163.32 300.38,209.66 301.63,265.34 302.88,326.06 304.13,386.92 305.38,442.82 306.63,488.90 307.88,520.99 309.14,536.02 310.39,532.27 311.64,509.63 312.89,469.61 314.14,415.24 315.39,350.89 316.65,281.84 317.90,213.89 319.15,152.81 320.40,103.86 321.65,71.31 322.90,58.04 324.16,65.31 325.41,92.56 326.66,137.56 327.91,196.48 329.16,264.33 330.41,335.33 331.66,403.43 332.92,462.90 334.17,508.74 335.42,537.21 336.67,546.07 337.92,534.82 339.17,504.69 340.43,458.51 341.68,400.46 342.93,335.66 344.18,269.70 345.43,208.15 346.68,156.06 347.93,117.57 349.19,95.51 350.44,91.22 351.69,104.50 352.94,133.64 354.19,175.65 355.44,226.54 356.70,281.76 357.95,336.56 359.20,386.45 360.45,427.56 361.70,456.98 362.95,472.92 364.21,474.83 365.46,463.37 366.71,440.26 367.96,408.11 369.21,370.08 370.46,329.58 371.71,289.98 372.97,254.28 374.22,224.92 375.47,203.61 376.72,191.22 377.97,187.84 379.22,192.84 380.48,204.97 381.73,222.63 382.98,243.96 384.23,267.12 385.48,290.38 386.73,312.32 387.98,331.84 389.24,348.20 390.49,361.01 391.74,370.18 392.99,375.82 394.24,378.13 395.49,377.39 396.75,373.81 398.00,367.56 399.25,358.77 400.50,347.52 401.75,333.94 403.00,318.26 404.26,300.88 405.51,282.41 406.76,263.73 408.01,245.92 409.26,230.27 410.51,218.12 411.76,210.79 413.02,209.41 414.27,214.75 415.52,227.12 416.77,246.24 418.02,271.21 419.27,300.51 420.53,332.10 421.78,363.52 423.03,392.12 424.28,415.31 425.53,430.75 426.78,436.68 428.04,432.05 429.29,416.69 430.54,391.42 431.79,357.95 433.04,318.86 434.29,277.31 435.54,236.84 436.80,201.03 438.05,173.14 439.30,155.86 440.55,150.97 441.80,159.19 443.05,180.06 444.31,211.97 445.56,252.28 446.81,297.53 448.06,343.78 449.31,386.91 450.56,423.09 451.81,449.05 453.07,462.44 454.32,462.05 455.57,447.93 456.82,421.39 458.07,384.86 459.32,341.70 460.58,295.84 461.83,251.46 463.08,212.53 464.33,182.51 465.58,163.97 466.83,158.40 468.09,166.03 469.34,185.88 470.59,215.84 471.84,252.89 473.09,293.43 474.34,333.59 475.59,369.66 476.85,398.43 478.10,417.45 479.35,425.31 480.60,421.70 481.85,407.44 483.10,384.35 484.36,355.05 485.61,322.65 486.86,290.46 488.11,261.63 489.36,238.83 490.61,224.00 491.86,218.20 493.12,221.48 494.37,232.99 495.62,251.03 496.87,273.31 498.12,297.18 499.37,319.96 500.63,339.23 501.88,353.05 503.13,360.18 504.38,360.19 505.63,353.50 506.88,341.26 508.14,325.24 509.39,307.57 510.64,290.54 511.89,276.27 513.14,266.51 514.39,262.43 515.64,264.49 516.90,272.37 518.15,285.06 519.40,300.97 520.65,318.07 521.90,334.21 523.15,347.30 524.41,355.61 525.66,357.94 526.91,353.76 528.16,343.33 529.41,327.62 530.66,308.25 531.91,287.30 533.17,267.08 534.42,249.90 535.67,237.77 536.92,232.21 538.17,234.08 539.42,243.42 540.68,259.50 541.93,280.84 543.18,305.38 544.43,330.70 545.68,354.23 546.93,373.56 548.19,386.68 549.44,392.17 550.69,389.40 551.94,378.55 553.19,360.61 554.44,337.31 555.69,310.87 556.95,283.86 558.20,258.87 559.45,238.29 560.70,224.03 561.95,217.38 563.20,218.85 564.46,228.16 565.71,244.24 566.96,265.42 568.21,289.55 569.46,314.25 570.71,337.18 571.96,356.24 573.22,369.79 574.47,376.83 575.72,377.02 576.97,370.75 578.22,359.00 579.47,343.28 580.73,325.39 581.98,307.26 583.23,290.68 584.48,277.16 585.73,267.76 586.98,263.01 588.24,262.85 589.49,266.71 590.74,273.62 591.99,282.31 593.24,291.41 594.49,299.66 595.74,306.03 597.00,309.85 598.25,310.93 599.50,309.51 600.75,306.28 602.00,302.19 603.25,298.40 604.51,296.04 605.76,296.05 607.01,299.04 608.26,305.17 609.51,314.11 610.76,325.01 612.02,336.61 613.27,347.36 614.52,355.62 615.77,359.85 617.02,358.82 618.27,351.81 619.52,338.72 620.78,320.20 622.03,297.54 623.28,272.70 624.53,248.03 625.78,226.14 627.03,209.54 628.29,200.43 629.54,200.42 630.79,210.29 632.04,229.87 633.29,258.03 634.54,292.66 635.79,330.89 637.05,369.31 638.30,404.27 639.55,432.29 640.80,450.33 642.05,456.17 643.30,448.66 644.56,427.86 645.81,395.08 647.06,352.82 648.31,304.58 649.56,254.54 650.81,207.17 652.07,166.88 653.32,137.52 654.57,122.05 655.82,122.24 657.07,138.46 658.32,169.63 659.57,213.28 660.83,265.76 662.08,322.57 663.33,378.74 664.58,429.31 665.83,469.76 667.08,496.44 668.34,506.90 669.59,500.14 670.84,476.67 672.09,438.49 673.34,388.91 674.59,332.23 675.84,273.36 677.10,217.39 678.35,169.10 679.60,132.56 680.85,110.77 682.10,105.40 683.35,116.68 684.61,143.39 685.86,183.00 687.11,231.93 688.36,285.87 689.61,340.21 690.86,390.42 692.12,432.47 693.37,463.12 694.62,480.24 695.87,482.90 697.12,471.41 698.37,447.25 699.62,412.89 700.88,371.50 702.13,326.69 703.38,282.15 704.63,241.32 705.88,207.15 707.13,181.86 708.39,166.84 709.64,162.56 710.89,168.63 712.14,183.91 713.39,206.67 714.64,234.76 715.89,265.86 717.15,297.68 718.40,328.10 719.65,355.33 720.90,377.99 722.15,395.14 723.40,406.26 724.66,411.25 725.91,410.30 727.16,403.84 728.41,392.49 729.66,376.95 730.91,358.00 732.17,336.43 733.42,313.12 734.67,288.98 735.92,265.00 737.17,242.26 738.42,221.94 739.67,205.24 740.93,193.39 742.18,187.50 743.43,188.51 744.68,197.02 745.93,213.21 747.18,236.72 748.44,266.60 749.69,301.28 750.94,338.65 752.19,376.14 753.44,410.88 754.69,439.97 755.94,460.67 757.20,470.71 758.45,468.52 759.70,453.42 760.95,425.80 762.20,387.11 763.45,339.87 764.71,287.50 765.96,234.04 767.21,183.90 768.46,141.43 769.71,110.53 770.96,94.33 772.22,94.80 773.47,112.57 774.72,146.80 775.97,195.18 777.22,254.10 778.47,318.90 779.72,384.25 780.98,444.63 782.23,494.80 783.48,530.24 784.73,547.63 785.98,545.13 787.23,522.58 788.49,481.56 789.74,425.30 790.99,358.36 792.24,286.31 793.49,215.22 794.74,151.12 795.99,99.50 797.25,64.80 798.50,50.00 799.75,56.39 801.00,83.44 802.25,128.81 803.50,188.62 804.76,257.75 806.01,330.32 807.26,400.17 808.51,461.47 809.76,509.17 811.01,539.44 812.27,550.00 813.52,540.30 814.77,511.50 816.02,466.40 817.27,409.09 818.52,344.61 819.77,278.48 821.03,216.21 822.28,162.83 823.53,122.45 824.78,97.94 826.03,90.77 827.28,100.89 828.54,126.80 829.79,165.77 831.04,214.10 832.29,267.50 833.54,321.46 834.79,371.68 836.05,414.40 837.30,446.69 838.55,466.62 839.80,473.40 841.05,467.33 842.30,449.71 843.55,422.64 844.81,388.81 846.06,351.17 847.31,312.74 848.56,276.29 849.81,244.20 851.06,218.28 852.32,199.72 853.57,189.06 854.82,186.25 856.07,190.73 857.32,201.59 858.57,217.63 859.82,237.56 861.08,260.06 862.33,283.87 863.58,307.84 864.83,330.96 866.08,352.33 867.33,371.15 868.59,386.72 869.84,398.36 871.09,405.49 872.34,407.58 873.59,404.23 874.84,395.21 876.10,380.55 877.35,360.57 878.60,336.01 879.85,307.98 881.10,278.00 882.35,247.93 883.60,219.87 884.86,196.02 886.11,178.48 887.36,169.10 888.61,169.22 889.86,179.54 891.11,199.98 892.37,229.59 893.62,266.59 894.87,308.44 896.12,352.00 897.37,393.78 898.62,430.24 899.87,458.09 901.13,474.61 902.38,477.90 903.63,467.16 904.88,442.75 906.13,406.25 907.38,360.34 908.64,308.64 909.89,255.40 911.14,205.12 912.39,162.18 913.64,130.43 914.89,112.82 916.15,111.13 917.40,125.75 918.65,155.67 919.90,198.48 921.15,250.61 922.40,307.64 923.65,364.65 924.91,416.70 926.16,459.26 927.41,488.62 928.66,502.24 929.91,498.98 931.16,479.18 932.42,444.69 933.67,398.62 934.92,345.11 936.17,288.92 937.42,234.99 938.67,188.01 939.92,151.97 941.18,129.83 942.43,123.23 943.68,132.40 944.93,156.16 946.18,192.02 947.43,236.48 948.69,285.37 949.94,334.22 951.19,378.72 952.44,415.09 953.69,440.43 954.94,452.95 956.20,452.09 957.45,438.54 958.70,414.13 959.95,381.60 961.20,344.29 962.45,305.84 963.70,269.78 964.96,239.22 966.21,216.58 967.46,203.37 968.71,200.14 969.96,206.42 971.21,220.86 972.47,241.45 973.72,265.70 974.97,290.97 976.22,314.73 977.47,334.85 978.72,349.72 979.97,358.47 981.23,360.92 982.48,357.64 983.73,349.72 984.98,338.71 986.23,326.31 987.48,314.23 988.74,303.94 989.99,296.52 991.24,292.54 992.49,292.04 993.74,294.55 994.99,299.17 996.25,304.73 997.50,309.95 998.75,313.64 1000.00,314.87" stroke-dasharray="3.6 3.6" stroke-width="3.6" stroke="#aaa" />
<polyline fill="none" points="0.00,199.99 1.25,201.41 2.50,202.82 3.75,204.21 5.01,205.56 6.26,206.88 7.51,208.15 8.76,209.36 10.01,210.51 11.26,211.59 12.52,212.60 13.77,213.52 15.02,214.36 16.27,215.10 17.52,215.75 18.77,216.29 20.03,216.73 21.28,217.06 22.53,217.27 23.78,217.38 25.03,217.37 26.28,217.24 27.53,217.00 28.79,216.64 30.04,216.17 31.29,215.58 32.54,214.89 33.79,214.09 35.04,213.19 36.30,212.19 37.55,211.09 38.80,209.91 40.05,208.64 41.30,207.29 42.55,205.88 43.80,204.40 45.06,202.87 46.31,201.29 47.56,199.66 48.81,198.01 50.06,196.33 51.31,194.64 52.57,192.95 53.82,191.25 55.07,189.57 56.32,187.91 57.57,186.28 58.82,184.69 60.08,183.15 61.33,181.66 62.58,180.23 63.83,178.88 65.08,177.60 66.33,176.41 67.58,175.32 68.84,174.32 70.09,173.43 71.34,172.64 72.59,171.98 73.84,171.43 75.09,171.00 76.35,170.69 77.60,170.52 78.85,170.47 80.10,170.55 81.35,170.76 82.60,171.10 83.85,171.57 85.11,172.16 86.36,172.88 87.61,173.72 88.86,174.67 90.11,175.73 91.36,176.89 92.62,178.15 93.87,179.51 95.12,180.95 96.37,182.47 97.62,184.05 98.87,185.69 100.13,187.39 101.38,189.12 102.63,190.88 103.88,192.66 105.13,194.45 106.38,196.24 107.63,198.01 108.89,199.76 110.14,201.46 111.39,203.12 112.64,204.72 113.89,206.24 115.14,207.68 116.40,209.03 117.65,210.27 118.90,211.39 120.15,212.38 121.40,213.24 122.65,213.94 123.90,214.50 125.16,214.88 126.41,215.10 127.66,215.13 128.91,214.97 130.16,214.63 131.41,214.08 132.67,213.33 133.92,212.37 135.17,211.20 136.42,209.82 137.67,208.23 138.92,206.42 140.18,204.40 141.43,202.17 142.68,199.72 143.93,197.08 145.18,194.22 146.43,191.17 147.68,187.93 148.94,184.50 150.19,180.90 151.44,177.13 152.69,173.19 153.94,169.11 155.19,164.89 156.45,160.53 157.70,156.07 158.95,151.50 160.20,146.84 161.45,142.10 162.70,137.30 163.95,132.45 165.21,127.57 166.46,122.67 167.71,117.77 168.96,112.89 170.21,108.03 171.46,103.22 172.72,98.47 173.97,93.79 175.22,89.21 176.47,84.73 177.72,80.38 178.97,76.16 180.23,72.10 181.48,68.20 182.73,64.48 183.98,60.95 185.23,57.63 186.48,54.52 187.73,51.64 188.99,48.99 190.24,46.59 191.49,44.44 192.74,42.56 193.99,40.94 195.24,39.60 196.50,38.54 197.75,37.75 199.00,37.25 200.25,37.04 201.50,37.11 202.75,37.47 204.01,38.11 205.26,39.03 206.51,40.23 207.76,41.70 209.01,43.43 210.26,45.43 211.51,47.67 212.77,50.16 214.02,52.88 215.27,55.82 216.52,58.97 217.77,62.31 219.02,65.84 220.28,69.54 221.53,73.40 222.78,77.39 224.03,81.51 225.28,85.73 226.53,90.04 227.78,94.43 229.04,98.87 230.29,103.35 231.54,107.85 232.79,112.36 234.04,116.84 235.29,121.29 236.55,125.69 237.80,130.02 239.05,134.27 240.30,138.41 241.55,142.42 242.80,146.30 244.06,150.03 245.31,153.59 246.56,156.97 247.81,160.15 249.06,163.12 250.31,165.87 251.56,168.38 252.82,170.65 254.07,172.67 255.32,174.43 256.57,175.92 257.82,177.13 259.07,178.06 260.33,178.71 261.58,179.06 262.83,179.13 264.08,178.91 265.33,178.39 266.58,177.59 267.83,176.50 269.09,175.12 270.34,173.47 271.59,171.55 272.84,169.36 274.09,166.92 275.34,164.23 276.60,161.30 277.85,158.14 279.10,154.77 280.35,151.20 281.60,147.44 282.85,143.51 284.11,139.42 285.36,135.19 286.61,130.83 287.86,126.36 289.11,121.80 290.36,117.17 291.61,112.49 292.87,107.76 294.12,103.02 295.37,98.28 296.62,93.55 297.87,88.86 299.12,84.23 300.38,79.67 301.63,75.21 302.88,70.85 304.13,66.62 305.38,62.53 306.63,58.61 307.88,54.86 309.14,51.30 310.39,47.94 311.64,44.81 312.89,41.90 314.14,39.24 315.39,36.83 316.65,34.69 317.90,32.82 319.15,31.23 320.40,29.93 321.65,28.92 322.90,28.22 324.16,27.81 325.41,27.72 326.66,27.92 327.91,28.44 329.16,29.26 330.41,30.39 331.66,31.82 332.92,33.54 334.17,35.56 335.42,37.86 336.67,40.44 337.92,43.29 339.17,46.40 340.43,49.76 341.68,53.36 342.93,57.19 344.18,61.24 345.43,65.48 346.68,69.92 347.93,74.52 349.19,79.28 350.44,84.19 351.69,89.22 352.94,94.36 354.19,99.59 355.44,104.89 356.70,110.26 357.95,115.66 359.20,121.09 360.45,126.52 361.70,131.95 362.95,137.34 364.21,142.69 365.46,147.98 366.71,153.19 367.96,158.30 369.21,163.31 370.46,168.20 371.71,172.94 372.97,177.54 374.22,181.97 375.47,186.23 376.72,190.30 377.97,194.18 379.22,197.85 380.48,201.30 381.73,204.53 382.98,207.53 384.23,210.30 385.48,212.82 386.73,215.11 387.98,217.14 389.24,218.93 390.49,220.47 391.74,221.76 392.99,222.80 394.24,223.60 395.49,224.15 396.75,224.47 398.00,224.55 399.25,224.40 400.50,224.03 401.75,223.45 403.00,222.66 404.26,221.67 405.51,220.50 406.76,219.15 408.01,217.63 409.26,215.96 410.51,214.15 411.76,212.20 413.02,210.14 414.27,207.97 415.52,205.71 416.77,203.37 418.02,200.96 419.27,198.51 420.53,196.01 421.78,193.50 423.03,190.97 424.28,188.44 425.53,185.93 426.78,183.44 428.04,181.00 429.29,178.61 430.54,176.29 431.79,174.04 433.04,171.88 434.29,169.82 435.54,167.86 436.80,166.02 438.05,164.31 439.30,162.72 440.55,161.28 441.80,159.98 443.05,158.83 444.31,157.83 445.56,157.00 446.81,156.33 448.06,155.82 449.31,155.47 450.56,155.30 451.81,155.29 453.07,155.44 454.32,155.76 455.57,156.24 456.82,156.88 458.07,157.67 459.32,158.62 460.58,159.70 461.83,160.93 463.08,162.28 464.33,163.77 465.58,165.36 466.83,167.07 468.09,168.88 469.34,170.78 470.59,172.77 471.84,174.82 473.09,176.94 474.34,179.11 475.59,181.33 476.85,183.58 478.10,185.85 479.35,188.14 480.60,190.42 481.85,192.70 483.10,194.96 484.36,197.20 485.61,199.39 486.86,201.54 488.11,203.63 489.36,205.66 490.61,207.62 491.86,209.50 493.12,211.29 494.37,212.98 495.62,214.58 496.87,216.07 498.12,217.44 499.37,218.71 500.63,219.85 501.88,220.87 503.13,221.76 504.38,222.53 505.63,223.17 506.88,223.68 508.14,224.06 509.39,224.32 510.64,224.44 511.89,224.44 513.14,224.32 514.39,224.08 515.64,223.72 516.90,223.26 518.15,222.68 519.40,222.01 520.65,221.24 521.90,220.38 523.15,219.43 524.41,218.42 525.66,217.33 526.91,216.18 528.16,214.99 529.41,213.74 530.66,212.46 531.91,211.15 533.17,209.82 534.42,208.48 535.67,207.13 536.92,205.79 538.17,204.46 539.42,203.15 540.68,201.87 541.93,200.63 543.18,199.43 544.43,198.28 545.68,197.18 546.93,196.14 548.19,195.18 549.44,194.28 550.69,193.46 551.94,192.73 553.19,192.08 554.44,191.51 555.69,191.04 556.95,190.66 558.20,190.37 559.45,190.18 560.70,190.07 561.95,190.07 563.20,190.15 564.46,190.32 565.71,190.58 566.96,190.92 568.21,191.35 569.46,191.85 570.71,192.41 571.96,193.05 573.22,193.74 574.47,194.49 575.72,195.28 576.97,196.10 578.22,196.96 579.47,197.85 580.73,198.74 581.98,199.64 583.23,200.54 584.48,201.42 585.73,202.28 586.98,203.11 588.24,203.90 589.49,204.64 590.74,205.32 591.99,205.94 593.24,206.47 594.49,206.92 595.74,207.27 597.00,207.53 598.25,207.67 599.50,207.69 600.75,207.58 602.00,207.35 603.25,206.98 604.51,206.46 605.76,205.79 607.01,204.97 608.26,204.00 609.51,202.86 610.76,201.56 612.02,200.10 613.27,198.48 614.52,196.68 615.77,194.73 617.02,192.61 618.27,190.33 619.52,187.89 620.78,185.30 622.03,182.56 623.28,179.67 624.53,176.64 625.78,173.49 627.03,170.20 628.29,166.80 629.54,163.29 630.79,159.68 632.04,155.98 633.29,152.21 634.54,148.36 635.79,144.46 637.05,140.51 638.30,136.53 639.55,132.53 640.80,128.52 642.05,124.51 643.30,120.53 644.56,116.57 645.81,112.66 647.06,108.80 648.31,105.02 649.56,101.32 650.81,97.72 652.07,94.23 653.32,90.86 654.57,87.62 655.82,84.53 657.07,81.60 658.32,78.84 659.57,76.25 660.83,73.85 662.08,71.65 663.33,69.65 664.58,67.86 665.83,66.29 667.08,64.95 668.34,63.84 669.59,62.96 670.84,62.32 672.09,61.92 673.34,61.76 674.59,61.84 675.84,62.16 677.10,62.73 678.35,63.53 679.60,64.57 680.85,65.84 682.10,67.33 683.35,69.04 684.61,70.97 685.86,73.10 687.11,75.43 688.36,77.94 689.61,80.63 690.86,83.48 692.12,86.49 693.37,89.64 694.62,92.91 695.87,96.30 697.12,99.79 698.37,103.36 699.62,107.01 700.88,110.70 702.13,114.44 703.38,118.19 704.63,121.95 705.88,125.71 707.13,129.43 708.39,133.11 709.64,136.73 710.89,140.28 712.14,143.74 713.39,147.08 714.64,150.31 715.89,153.40 717.15,156.34 718.40,159.11 719.65,161.70 720.90,164.10 722.15,166.30 723.40,168.29 724.66,170.05 725.91,171.58 727.16,172.86 728.41,173.90 729.66,174.68 730.91,175.20 732.17,175.45 733.42,175.43 734.67,175.14 735.92,174.57 737.17,173.73 738.42,172.62 739.67,171.23 740.93,169.58 742.18,167.66 743.43,165.49 744.68,163.06 745.93,160.38 747.18,157.47 748.44,154.33 749.69,150.97 750.94,147.41 752.19,143.65 753.44,139.72 754.69,135.61 755.94,131.35 757.20,126.96 758.45,122.44 759.70,117.81 760.95,113.10 762.20,108.32 763.45,103.48 764.71,98.60 765.96,93.71 767.21,88.82 768.46,83.95 769.71,79.12 770.96,74.34 772.22,69.64 773.47,65.03 774.72,60.53 775.97,56.16 777.22,51.93 778.47,47.86 779.72,43.98 780.98,40.29 782.23,36.80 783.48,33.54 784.73,30.52 785.98,27.74 787.23,25.22 788.49,22.98 789.74,21.01 790.99,19.34 792.24,17.96 793.49,16.89 794.74,16.12 795.99,15.67 797.25,15.54 798.50,15.72 799.75,16.23 801.00,17.06 802.25,18.20 803.50,19.66 804.76,21.44 806.01,23.52 807.26,25.90 808.51,28.58 809.76,31.55 811.01,34.79 812.27,38.31 813.52,42.07 814.77,46.09 816.02,50.33 817.27,54.80 818.52,59.46 819.77,64.32 821.03,69.35 822.28,74.53 823.53,79.86 824.78,85.30 826.03,90.85 827.28,96.49 828.54,102.20 829.79,107.95 831.04,113.74 832.29,119.53 833.54,125.33 834.79,131.09 836.05,136.82 837.30,142.48 838.55,148.06 839.80,153.55 841.05,158.92 842.30,164.16 843.55,169.26 844.81,174.20 846.06,178.96 847.31,183.53 848.56,187.90 849.81,192.05 851.06,195.98 852.32,199.67 853.57,203.12 854.82,206.31 856.07,209.25 857.32,211.91 858.57,214.31 859.82,216.42 861.08,218.26 862.33,219.81 863.58,221.08 864.83,222.07 866.08,222.78 867.33,223.20 868.59,223.36 869.84,223.24 871.09,222.85 872.34,222.21 873.59,221.32 874.84,220.18 876.10,218.81 877.35,217.21 878.60,215.40 879.85,213.39 881.10,211.19 882.35,208.82 883.60,206.28 884.86,203.59 886.11,200.77 887.36,197.83 888.61,194.79 889.86,191.66 891.11,188.46 892.37,185.20 893.62,181.90 894.87,178.58 896.12,175.25 897.37,171.92 898.62,168.62 899.87,165.36 901.13,162.15 902.38,159.01 903.63,155.96 904.88,153.00 906.13,150.15 907.38,147.42 908.64,144.83 909.89,142.39 911.14,140.10 912.39,137.98 913.64,136.04 914.89,134.28 916.15,132.71 917.40,131.35 918.65,130.18 919.90,129.23 921.15,128.49 922.40,127.97 923.65,127.67 924.91,127.58 926.16,127.72 927.41,128.07 928.66,128.65 929.91,129.44 931.16,130.43 932.42,131.64 933.67,133.05 934.92,134.65 936.17,136.44 937.42,138.42 938.67,140.57 939.92,142.88 941.18,145.35 942.43,147.96 943.68,150.71 944.93,153.58 946.18,156.56 947.43,159.65 948.69,162.82 949.94,166.07 951.19,169.38 952.44,172.74 953.69,176.14 954.94,179.56 956.20,183.00 957.45,186.44 958.70,189.86 959.95,193.26 961.20,196.61 962.45,199.92 963.70,203.17 964.96,206.35 966.21,209.44 967.46,212.44 968.71,215.33 969.96,218.11 971.21,220.78 972.47,223.31 973.72,225.71 974.97,227.96 976.22,230.06 977.47,232.01 978.72,233.81 979.97,235.43 981.23,236.90 982.48,238.19 983.73,239.32 984.98,240.27 986.23,241.06 987.48,241.68 988.74,242.12 989.99,242.41 991.24,242.53 992.49,242.49 993.74,242.29 994.99,241.94 996.25,241.45 997.50,240.82 998.75,240.06 1000.00,239.17" stroke-dasharray="3.6 3.6" stroke-width="3.6" stroke="red" />
</g>
</svg>