<?xml version="1.0"?>
<svg version="1.1" viewBox="0 0 1000 600" xmlns:xlink="http://www.w3.org/1999/xlink" xmlns="http://www.w3.org/2000/svg">
<g>
<polyline fill="none" points="0.00,349.92 1.25,370.65 2.50,383.85 3.75,388.43 5.01,384.23 6.26,372.01 7.51,353.34 8.76,330.47 10.01,306.02 11.26,282.71 12.52,263.07 13.77,249.18 15.02,242.42 16.27,243.33 17.52,251.61 18.77,266.09 20.03,284.93 21.28,305.81 22.53,326.19 23.78,343.61 25.03,355.97 26.28,361.75 27.53,360.21 28.79,351.45 30.04,336.44 31.29,316.87 32.54,295.00 33.79,273.40 35.04,254.66 36.30,241.10 37.55,234.51 38.80,235.91 40.05,245.48 41.30,262.45 42.55,285.23 43.80,311.53 45.06,338.59 46.31,363.49 47.56,383.47 48.81,396.18 50.06,399.99 51.31,394.17 52.57,378.96 53.82,355.60 55.07,326.19 56.32,293.51 57.57,260.75 58.82,231.17 60.08,207.78 61.33,193.03 62.58,188.58 63.83,195.06 65.08,212.08 66.33,238.17 67.58,270.98 68.84,307.51 70.09,344.32 71.34,377.98 72.59,405.31 73.84,423.73 75.09,431.51 76.35,427.93 77.60,413.34 78.85,389.11 80.10,357.50 81.35,321.46 82.60,284.30 83.85,249.36 85.11,219.76 86.36,198.05 87.61,185.99 88.86,184.42 90.11,193.21 91.36,211.29 92.62,236.76 93.87,267.13 95.12,299.59 96.37,331.22 97.62,359.34 98.87,381.70 100.13,396.70 101.38,403.49 102.63,402.00 103.88,392.90 105.13,377.51 106.38,357.57 107.63,335.12 108.89,312.19 110.14,290.69 111.39,272.19 112.64,257.80 113.89,248.13 115.14,243.30 116.40,242.96 117.65,246.42 118.90,252.78 120.15,261.07 121.40,270.35 122.65,279.88 123.90,289.13 125.16,297.84 126.41,305.99 127.66,313.72 128.91,321.28 130.16,328.89 131.41,336.65 132.67,344.46 133.92,351.99 135.17,358.63 136.42,363.60 137.67,365.96 138.92,364.79 140.18,359.32 141.43,349.07 142.68,333.98 143.93,314.50 145.18,291.62 146.43,266.87 147.68,242.20 148.94,219.84 150.19,202.10 151.44,191.11 152.69,188.60 153.94,195.68 155.19,212.63 156.45,238.85 157.70,272.77 158.95,312.00 160.20,353.43 161.45,393.52 162.70,428.61 163.95,455.24 165.21,470.52 166.46,472.42 167.71,460.03 168.96,433.70 170.21,395.06 171.46,346.96 172.72,293.22 173.97,238.34 175.22,187.12 176.47,144.18 177.72,113.60 178.97,98.46 180.23,100.57 181.48,120.22 182.73,156.17 183.98,205.67 185.23,264.73 186.48,328.40 187.73,391.24 188.99,447.77 190.24,493.01 191.49,522.90 192.74,534.66 193.99,527.11 195.24,500.74 196.50,457.69 197.75,401.58 199.00,337.18 200.25,269.99 201.50,205.73 202.75,149.88 204.01,107.16 205.26,81.12 206.51,73.85 207.76,85.79 209.01,115.75 210.26,160.97 211.51,217.46 212.77,280.31 214.02,344.15 215.27,403.67 216.52,454.01 217.77,491.22 219.02,512.57 220.28,516.71 221.53,503.81 222.78,475.44 224.03,434.40 225.28,384.44 226.53,329.91 227.78,275.33 229.04,225.05 230.29,182.86 231.54,151.69 232.79,133.44 234.04,128.88 235.29,137.65 236.55,158.35 237.80,188.76 239.05,226.03 240.30,267.02 241.55,308.53 242.80,347.58 244.06,381.60 245.31,408.62 246.56,427.33 247.81,437.10 249.06,437.99 250.31,430.59 251.56,415.96 252.82,395.49 254.07,370.72 255.32,343.28 256.57,314.73 257.82,286.54 259.07,260.05 260.33,236.41 261.58,216.61 262.83,201.49 264.08,191.74 265.33,187.89 266.58,190.31 267.83,199.15 269.09,214.29 270.34,235.34 271.59,261.53 272.84,291.73 274.09,324.42 275.34,357.72 276.60,389.51 277.85,417.51 279.10,439.47 280.35,453.33 281.60,457.44 282.85,450.75 284.11,432.95 285.36,404.60 286.61,367.17 287.86,322.97 289.11,275.07 290.36,227.04 291.61,182.75 292.87,145.99 294.12,120.15 295.37,107.91 296.62,110.93 297.87,129.69 299.12,163.32 300.38,209.66 301.63,265.34 302.88,326.06 304.13,386.92 305.38,442.82 306.63,488.90 307.88,520.99 309.14,536.02 310.39,532.27 311.64,509.63 312.89,469.61 314.14,415.24 315.39,350.89 316.65,281.84 317.90,213.89 319.15,152.81 320.40,103.86 321.65,71.31 322.90,58.04 324.16,65.31 325.41,92.56 326.66,137.56 327.91,196.48 329.16,264.33 330.41,335.33 331.66,403.43 332.92,462.90 334.17,508.74 335.42,537.21 336.67,546.07 337.92,534.82 339.17,504.69 340.43,458.51 341.68,400.46 342.93,335.66 344.18,269.70 345.43,208.15 346.68,156.06 347.93,117.57 349.19,95.51 350.44,91.22 351.69,104.50 352.94,133.64 354.19,175.65 355.44,226.54 356.70,281.76 357.95,336.56 359.20,386.45 360.45,427.56 361.70,456.98 362.95,472.92 364.21,474.83 365.46,463.37 366.71,440.26 367.96,408.11 369.21,370.08 370.46,329.58 371.71,289.98 372.97,254.28 374.22,224.92 375.47,203.61 376.72,191.22 377.97,187.84 379.22,192.84 380.48,204.97 381.73,222.63 382.98,243.96 384.23,267.12 385.48,290.38 386.73,312.32 387.98,331.84 389.24,348.20 390.49,361.01 391.74,370.18 392.99,375.82 394.24,378.13 395.49,377.39 396.75,373.81 398.00,367.56 399.25,358.77 400.50,347.52 401.75,333.94 403.00,318.26 404.26,300.88 405.51,282.41 406.76,263.73 408.01,245.92 409.26,230.27 410.51,218.12 411.76,210.79 413.02,209.41 414.27,214.75 415.52,227.12 416.77,246.24 418.02,271.21 419.27,300.51 420.53,332.10 421.78,363.52 423.03,392.12 424.28,415.31 425.53,430.75 426.78,436.68 428.04,432.05 429.29,416.69 430.54,391.42 431.79,357.95 433.04,318.86 434.29,277.31 435.54,236.84 436.80,201.03 438.05,173.14 439.30,155.86 440.55,150.97 441.80,159.19 443.05,180.06 444.31,211.97 445.56,252.28 446.81,297.53 448.06,343.78 449.31,386.91 450.56,423.09 451.81,449.05 453.07,462.44 454.32,462.05 455.57,447.93 456.82,421.39 458.07,384.86 459.32,341.70 460.58,295.84 461.83,251.46 463.08,212.53 464.33,182.51 465.58,163.97 466.83,158.40 468.09,166.03 469.34,185.88 470.59,215.84 471.84,252.89 473.09,293.43 474.34,333.59 475.59,369.66 476.85,398.43 478.10,417.45 479.35,425.31 480.60,421.70 481.85,407.44 483.10,384.35 484.36,355.05 485.61,322.65 486.86,290.46 488.11,261.63 489.36,238.83 490.61,224.00 491.86,218.20 493.12,221.48 494.37,232.99 495.62,251.03 496.87,273.31 498.12,297.18 499.37,319.96 500.63,339.23 501.88,353.05 503.13,360.18 504.38,360.19 505.63,353.50 506.88,341.26 508.14,325.24 509.39,307.57 510.64,290.54 511.89,276.27 513.14,266.51 514.39,262.43 515.64,264.49 516.90,272.37 518.15,285.06 519.40,300.97 520.65,318.07 521.90,334.21 523.15,347.30 524.41,355.61 525.66,357.94 526.91,353.76 528.16,343.33 529.41,327.62 530.66,308.25 531.91,287.30 533.17,267.08 534.42,249.90 535.67,237.77 536.92,232.21 538.17,234.08 539.42,243.42 540.68,259.50 541.93,280.84 543.18,305.38 544.43,330.70 545.68,354.23 546.93,373.56 548.19,386.68 549.44,392.17 550.69,389.40 551.94,378.55 553.19,360.61 554.44,337.31 555.69,310.87 556.95,283.86 558.20,258.87 559.45,238.29 560.70,224.03 561.95,217.38 563.20,218.85 564.46,228.16 565.71,244.24 566.96,265.42 568.21,289.55 569.46,314.25 570.71,337.18 571.96,356.24 573.22,369.79 574.47,376.83 575.72,377.02 576.97,370.75 578.22,359.00 579.47,343.28 580.73,325.39 581.98,307.26 583.23,290.68 584.48,277.16 585.73,267.76 586.98,263.01 588.24,262.85 589.49,266.71 590.74,273.62 591.99,282.31 593.24,291.41 594.49,299.66 595.74,306.03 597.00,309.85 598.25,310.93 599.50,309.51 600.75,306.28 602.00,302.19 603.25,298.40 604.51,296.04 605.76,296.05 607.01,299.04 608.26,305.17 609.51,314.11 610.76,325.01 612.02,336.61 613.27,347.36 614.52,355.62 615.77,359.85 617.02,358.82 618.27,351.81 619.52,338.72 620.78,320.20 622.03,297.54 623.28,272.70 624.53,248.03 625.78,226.14 627.03,209.54 628.29,200.43 629.54,200.42 630.79,210.29 632.04,229.87 633.29,258.03 634.54,292.66 635.79,330.89 637.05,369.31 638.30,404.27 639.55,432.29 640.80,450.33 642.05,456.17 643.30,448.66 644.56,427.86 645.81,395.08 647.06,352.82 648.31,304.58 649.56,254.54 650.81,207.17 652.07,166.88 653.32,137.52 654.57,122.05 655.82,122.24 657.07,138.46 658.32,169.63 659.57,213.28 660.83,265.76 662.08,322.57 663.33,378.74 664.58,429.31 665.83,469.76 667.08,496.44 668.34,506.90 669.59,500.14 670.84,476.67 672.09,438.49 673.34,388.91 674.59,332.23 675.84,273.36 677.10,217.39 678.35,169.10 679.60,132.56 680.85,110.77 682.10,105.40 683.35,116.68 684.61,143.39 685.86,183.00 687.11,231.93 688.36,285.87 689.61,340.21 690.86,390.42 692.12,432.47 693.37,463.12 694.62,480.24 695.87,482.90 697.12,471.41 698.37,447.25 699.62,412.89 700.88,371.50 702.13,326.69 703.38,282.15 704.63,241.32 705.88,207.15 707.13,181.86 708.39,166.84 709.64,162.56 710.89,168.63 712.14,183.91 713.39,206.67 714.64,234.76 715.89,265.86 717.15,297.68 718.40,328.10 719.65,355.33 720.90,377.99 722.15,395.14 723.40,406.26 724.66,411.25 725.91,410.30 727.16,403.84 728.41,392.49 729.66,376.95 730.91,358.00 732.17,336.43 733.42,313.12 734.67,288.98 735.92,265.00 737.17,242.26 738.42,221.94 739.67,205.24 740.93,193.39 742.18,187.50 743.43,188.51 744.68,197.02 745.93,213.21 747.18,236.72 748.44,266.60 749.69,301.28 750.94,338.65 752.19,376.14 753.44,410.88 754.69,439.97 755.94,460.67 757.20,470.71 758.45,468.52 759.70,453.42 760.95,425.80 762.20,387.11 763.45,339.87 764.71,287.50 765.96,234.04 767.21,183.90 768.46,141.43 769.71,110.53 770.96,94.33 772.22,94.80 773.47,112.57 774.72,146.80 775.97,195.18 777.22,254.10 778.47,318.90 779.72,384.25 780.98,444.63 782.23,494.80 783.48,530.24 784.73,547.63 785.98,545.13 787.23,522.58 788.49,481.56 789.74,425.30 790.99,358.36 792.24,286.31 793.49,215.22 794.74,151.12 795.99,99.50 797.25,64.80 798.50,50.00 799.75,56.39 801.00,83.44 802.25,128.81 803.50,188.62 804.76,257.75 806.01,330.32 807.26,400.17 808.51,461.47 809.76,509.17 811.01,539.44 812.27,550.00 813.52,540.30 814.77,511.50 816.02,466.40 817.27,409.09 818.52,344.61 819.77,278.48 821.03,216.21 822.28,162.83 823.53,122.45 824.78,97.94 826.03,90.77 827.28,100.89 828.54,126.80 829.79,165.77 831.04,214.10 832.29,267.50 833.54,321.46 834.79,371.68 836.05,414.40 837.30,446.69 838.55,466.62 839.80,473.40 841.05,467.33 842.30,449.71 843.55,422.64 844.81,388.81 846.06,351.17 847.31,312.74 848.56,276.29 849.81,244.20 851.06,218.28 852.32,199.72 853.57,189.06 854.82,186.25 856.07,190.73 857.32,201.59 858.57,217.63 859.82,237.56 861.08,260.06 862.33,283.87 863.58,307.84 864.83,330.96 866.08,352.33 867.33,371.15 868.59,386.72 869.84,398.36 871.09,405.49 872.34,407.58 873.59,404.23 874.84,395.21 876.10,380.55 877.35,360.57 878.60,336.01 879.85,307.98 881.10,278.00 882.35,247.93 883.60,219.87 884.86,196.02 886.11,178.48 887.36,169.10 888.61,169.22 889.86,179.54 891.11,199.98 892.37,229.59 893.62,266.59 894.87,308.44 896.12,352.00 897.37,393.78 898.62,430.24 899.87,458.09 901.13,474.61 902.38,477.90 903.63,467.16 904.88,442.75 906.13,406.25 907.38,360.34 908.64,308.64 909.89,255.40 911.14,205.12 912.39,162.18 913.64,130.43 914.89,112.82 916.15,111.13 917.40,125.75 918.65,155.67 919.90,198.48 921.15,250.61 922.40,307.64 923.65,364.65 924.91,416.70 926.16,459.26 927.41,488.62 928.66,502.24 929.91,498.98 931.16,479.18 932.42,444.69 933.67,398.62 934.92,345.11 936.17,288.92 937.42,234.99 938.67,188.01 939.92,151.97 941.18,129.83 942.43,123.23 943.68,132.40 944.93,156.16 946.18,192.02 947.43,236.48 948.69,285.37 949.94,334.22 951.19,378.72 952.44,415.09 953.69,440.43 954.94,452.95 956.20,452.09 957.45,438.54 958.70,414.13 959.95,381.60 961.20,344.29 962.45,305.84 963.70,269.78 964.96,239.22 966.21,216.58 967.46,203.37 968.71,200.14 969.96,206.42 971.21,220.86 972.47,241.45 973.72,265.70 974.97,290.97 976.22,314.73 977.47,334.85 978.72,349.72 979.97,358.47 981.23,360.92 982.48,357.64 983.73,349.72 984.98,338.71 986.23,326.31 987.48,314.23 988.74,303.94 989.99,296.52 991.24,292.54 992.49,292.04 993.74,294.55 994.99,299.17 996.25,304.73 997.50,309.95 998.75,313.64 1000.00,314.87" stroke-dasharray="3.6 3.6" stroke-width="3.6" stroke="#aaa" />
</g>
</svg>